<svg width="53" height="53" viewBox="0 0 53 53" fill="none" xmlns="http://www.w3.org/2000/svg">
<path d="M19.875 22.0833C22.3142 22.0833 24.2916 20.1059 24.2916 17.6667C24.2916 15.2274 22.3142 13.25 19.875 13.25C17.4357 13.25 15.4583 15.2274 15.4583 17.6667C15.4583 20.1059 17.4357 22.0833 19.875 22.0833Z" stroke="#FAFAFA" stroke-width="1.5" stroke-linecap="round" stroke-linejoin="round"/>
<path d="M28.7084 4.41675H19.875C8.83335 4.41675 4.41669 8.83342 4.41669 19.8751V33.1251C4.41669 44.1668 8.83335 48.5834 19.875 48.5834H33.125C44.1667 48.5834 48.5834 44.1668 48.5834 33.1251V22.0834" stroke="#FAFAFA" stroke-width="1.5" stroke-linecap="round" stroke-linejoin="round"/>
<path d="M34.7812 11.0417H46.9271" stroke="#FAFAFA" stroke-width="1.5" stroke-linecap="round"/>
<path d="M40.8542 17.1146V4.96875" stroke="#FAFAFA" stroke-width="1.5" stroke-linecap="round"/>
<path d="M5.89624 41.8478L16.7833 34.5382C18.5279 33.3678 21.0454 33.5003 22.6133 34.8474L23.3421 35.4878C25.0646 36.9674 27.8471 36.9674 29.5696 35.4878L38.7562 27.6041C40.4787 26.1245 43.2612 26.1245 44.9837 27.6041L48.5833 30.6957" stroke="#FAFAFA" stroke-width="1.5" stroke-linecap="round" stroke-linejoin="round"/>
</svg>
