<svg width="18" height="18" viewBox="0 0 18 18" fill="none" xmlns="http://www.w3.org/2000/svg">
<path d="M8.5449 1.71281C8.48268 1.65058 8.40671 1.60382 8.32312 1.57632C8.23953 1.54881 8.15064 1.54133 8.06362 1.55446C7.9766 1.5676 7.89389 1.60098 7.82214 1.65194C7.75038 1.70289 7.6916 1.76998 7.65052 1.84781L4.11071 8.53425L2.18134 10.4636C1.58734 11.0576 1.40621 11.9014 1.61602 12.6574C0.921337 13.5399 0.970837 14.8208 1.78365 15.6347C1.99257 15.8436 2.24068 16.0093 2.51376 16.1221C2.78683 16.2349 3.07949 16.2928 3.37496 16.2923C3.86715 16.2923 4.35371 16.1224 4.7604 15.8023C4.95784 15.8569 5.15977 15.8946 5.3634 15.8946C5.75771 15.8946 6.14977 15.7838 6.49965 15.5779L7.94921 17.0263C8.22315 17.3002 8.58315 17.4369 8.94315 17.4369C9.30315 17.4369 9.66315 17.3002 9.93765 17.0263C10.2009 16.7624 10.3487 16.4048 10.3487 16.0321C10.3487 15.6593 10.2009 15.3018 9.93765 15.0379L8.54546 13.6457L8.88352 13.3076L15.5705 9.76725C15.6483 9.72609 15.7153 9.66727 15.7661 9.59551C15.817 9.52376 15.8504 9.44107 15.8635 9.3541C15.8766 9.26712 15.8692 9.17827 15.8417 9.0947C15.8143 9.01112 15.7676 8.93515 15.7055 8.87288L8.5449 1.71281ZM2.57902 14.8387C2.44055 14.6992 2.34117 14.5257 2.29082 14.3357C2.24047 14.1457 2.24093 13.9457 2.29215 13.7559L3.66184 15.1262C3.47204 15.1774 3.27211 15.1779 3.08208 15.1275C2.89204 15.0772 2.71857 14.9778 2.57902 14.8393V14.8387ZM4.56802 14.4411L2.97671 12.8497C2.76622 12.6386 2.64802 12.3525 2.64802 12.0544C2.64802 11.7562 2.76622 11.4702 2.97671 11.259L4.56859 9.66769L7.75009 12.8497L6.15877 14.4411C5.72002 14.8798 5.00677 14.8798 4.56802 14.4411ZM9.14227 15.8333C9.21259 15.9036 9.22327 15.9879 9.22327 16.0318C9.22327 16.0757 9.21259 16.1601 9.14227 16.2304C9.08904 16.2821 9.01777 16.3111 8.94354 16.3112C8.86932 16.3113 8.79797 16.2825 8.74459 16.2309L7.35184 14.8387L7.75009 14.4411L9.14227 15.8333ZM8.64952 12.1584L5.2599 8.76825L8.2884 3.04706L14.3713 9.12937L8.64952 12.1584ZM10.6875 2.25V1.125C10.6875 0.975816 10.7467 0.832742 10.8522 0.727252C10.9577 0.621763 11.1008 0.5625 11.25 0.5625C11.3991 0.5625 11.5422 0.621763 11.6477 0.727252C11.7532 0.832742 11.8125 0.975816 11.8125 1.125V2.25C11.8125 2.39918 11.7532 2.54226 11.6477 2.64775C11.5422 2.75324 11.3991 2.8125 11.25 2.8125C11.1008 2.8125 10.9577 2.75324 10.8522 2.64775C10.7467 2.54226 10.6875 2.39918 10.6875 2.25ZM16.875 6.1875C16.875 6.33668 16.8157 6.47976 16.7102 6.58525C16.6047 6.69074 16.4616 6.75 16.3125 6.75H15.1875C15.0383 6.75 14.8952 6.69074 14.7897 6.58525C14.6842 6.47976 14.625 6.33668 14.625 6.1875C14.625 6.03832 14.6842 5.89524 14.7897 5.78975C14.8952 5.68426 15.0383 5.625 15.1875 5.625H16.3125C16.4616 5.625 16.6047 5.68426 16.7102 5.78975C16.8157 5.89524 16.875 6.03832 16.875 6.1875ZM13.1023 4.33519C12.9968 4.2297 12.9376 4.08665 12.9376 3.9375C12.9376 3.78835 12.9968 3.6453 13.1023 3.53981L14.2273 2.41481C14.2792 2.36109 14.3412 2.31824 14.4099 2.28876C14.4785 2.25928 14.5523 2.24376 14.627 2.24311C14.7017 2.24246 14.7757 2.25669 14.8449 2.28498C14.914 2.31326 14.9768 2.35503 15.0296 2.40784C15.0824 2.46065 15.1242 2.52346 15.1525 2.59259C15.1808 2.66172 15.195 2.73579 15.1944 2.81048C15.1937 2.88516 15.1782 2.95898 15.1487 3.0276C15.1192 3.09623 15.0764 3.1583 15.0227 3.21019L13.8977 4.33519C13.8455 4.3876 13.7836 4.4292 13.7153 4.45759C13.6471 4.48597 13.5739 4.50058 13.5 4.50058C13.426 4.50058 13.3529 4.48597 13.2846 4.45759C13.2164 4.4292 13.1544 4.3876 13.1023 4.33519Z" fill="#717171"/>
</svg>
