<svg width="35" height="35" viewBox="0 0 35 35" fill="none" xmlns="http://www.w3.org/2000/svg">
<rect width="35" height="35" rx="12" fill="#555555"/>
<path d="M20.1994 22.0165L21.1139 20.5324L22.7644 19.9695L22.9472 18.2361L24.189 17.0136L23.5986 15.3727L24.189 13.7318L22.9473 12.5094L22.7644 10.7759L21.114 10.213L20.1994 8.72895L18.4695 8.93781L17 8L15.5305 8.93789L13.8007 8.72902L12.8861 10.2131L11.2356 10.776L11.0528 12.5094L9.81104 13.7319L10.4014 15.3728L9.81104 17.0137L11.0528 18.2361L11.2356 19.9696L12.8861 20.5325L13.8006 22.0165L15.5305 21.8077L17 22.7455L18.4695 21.8077L20.1994 22.0165ZM11.9442 15.3728C11.9442 12.585 14.2122 10.317 17 10.317C19.7878 10.317 22.0558 12.585 22.0558 15.3728C22.0558 18.1605 19.7878 20.4286 17 20.4286C14.2122 20.4286 11.9442 18.1605 11.9442 15.3728Z" fill="#747474"/>
<path d="M17.0001 11.4897C14.8588 11.4897 13.1169 13.2317 13.1169 15.3729C13.1169 17.5142 14.8588 19.2562 17.0001 19.2562C19.1413 19.2562 20.8833 17.5142 20.8833 15.3729C20.8833 13.2317 19.1413 11.4897 17.0001 11.4897ZM15.2539 23.0224L13.1961 23.2708L12.1089 21.5065L11.7393 21.3804L10.145 26.3635L13.0151 26.2056L15.2606 28.0002L16.5821 23.87L15.2539 23.0224ZM21.8912 21.5065L20.804 23.2708L18.7462 23.0224L17.4181 23.87L18.7395 28.0002L20.985 26.2056L23.8551 26.3635L22.2608 21.3804L21.8912 21.5065Z" fill="#747474"/>
</svg>
