<svg width="40" height="40" viewBox="0 0 40 40" fill="none" xmlns="http://www.w3.org/2000/svg">
<rect width="40" height="40" rx="10" fill="#F6FBF6"/>
<path d="M17.8339 33C19.7959 33 21.4372 31.6013 21.8141 29.75H13.8537C14.2308 31.6013 15.872 33 17.8339 33ZM25.4302 19.999C25.4259 19.999 25.4215 20 25.4171 20C21.2366 20 17.8339 16.5983 17.8339 12.4167C17.8339 11.2672 18.0983 10.1806 18.5587 9.20346C18.3203 9.18081 18.0786 9.16675 17.8339 9.16675C13.6458 9.16675 10.2506 12.5617 10.2506 16.75V19.7703C10.2506 21.9142 9.31136 23.9379 7.66351 25.331C7.11426 25.8002 6.87051 26.5476 7.06764 27.2768C7.29733 28.125 8.13583 28.6667 9.01561 28.6667H26.6468C27.5697 28.6667 28.4397 28.0687 28.627 27.1641C28.7723 26.4643 28.5231 25.7655 27.9803 25.3094C26.4051 23.9889 25.4941 22.0485 25.4302 19.999Z" fill="#575CD4"/>
<path d="M30.8339 12.4167C30.8339 15.4083 28.4089 17.8333 25.4171 17.8333C22.4256 17.8333 20.0006 15.4083 20.0006 12.4167C20.0006 9.42521 22.4256 7 25.4171 7C28.4089 7 30.8339 9.42521 30.8339 12.4167Z" fill="#EBC82A"/>
</svg>
