<svg width="38" height="43" viewBox="0 0 38 43" fill="none" xmlns="http://www.w3.org/2000/svg">
<path fill-rule="evenodd" clip-rule="evenodd" d="M29.6196 18.2496C29.6196 20.2382 30.1451 21.4103 31.3017 22.761C32.1782 23.756 32.4584 25.0334 32.4584 26.4191C32.4584 27.8033 32.0036 29.1173 31.0925 30.1842C29.8997 31.4631 28.2175 32.2796 26.5006 32.4215C24.0128 32.6336 21.5233 32.8122 19.0008 32.8122C16.4767 32.8122 13.9888 32.7053 11.501 32.4215C9.78258 32.2796 8.10038 31.4631 6.90916 30.1842C5.99803 29.1173 5.54169 27.8033 5.54169 26.4191C5.54169 25.0334 5.82336 23.756 6.69829 22.761C7.89109 21.4103 8.38206 20.2382 8.38206 18.2496V17.5751C8.38206 14.912 9.04612 13.1706 10.4136 11.4659C12.4467 8.97979 15.7057 7.48877 18.93 7.48877H19.0716C22.3652 7.48877 25.7296 9.05155 27.7281 11.6445C29.0247 13.3141 29.6196 14.9821 29.6196 17.5751V18.2496ZM14.3666 36.0851C14.3666 35.2878 15.0984 34.9226 15.775 34.7663C16.5666 34.5989 21.3897 34.5989 22.1812 34.7663C22.8579 34.9226 23.5896 35.2878 23.5896 36.0851C23.5503 36.8442 23.1049 37.5171 22.4896 37.9445C21.6918 38.5664 20.7555 38.9603 19.7767 39.1022C19.2354 39.1724 18.7035 39.174 18.1811 39.1022C17.2007 38.9603 16.2644 38.5664 15.4682 37.9429C14.8513 37.5171 14.406 36.8442 14.3666 36.0851Z" fill="#969696"/>
<circle cx="28.5" cy="7.7" r="6.3" fill="#FEDD59" stroke="#424242" stroke-width="1.2"/>
</svg>
