<svg width="35" height="35" viewBox="0 0 35 35" fill="none" xmlns="http://www.w3.org/2000/svg">
<rect width="35" height="35" rx="12" fill="#555555"/>
<g clip-path="url(#clip0_0_1)">
<path d="M22 8.8335H12C10.8954 8.83482 9.83634 9.27423 9.05522 10.0553C8.27411 10.8365 7.8347 11.8955 7.83337 13.0002V19.6668C7.83459 20.627 8.16678 21.5574 8.77397 22.3012C9.38116 23.045 10.2262 23.5567 11.1667 23.7502V26.3335C11.1667 26.4844 11.2076 26.6324 11.2851 26.7618C11.3627 26.8913 11.4739 26.9972 11.6069 27.0684C11.7399 27.1396 11.8898 27.1733 12.0405 27.166C12.1912 27.1587 12.337 27.1106 12.4625 27.0268L17.25 23.8335H22C23.1047 23.8322 24.1637 23.3928 24.9449 22.6116C25.726 21.8305 26.1654 20.7715 26.1667 19.6668V13.0002C26.1654 11.8955 25.726 10.8365 24.9449 10.0553C24.1637 9.27423 23.1047 8.83482 22 8.8335ZM20.3334 18.8335H13.6667C13.4457 18.8335 13.2337 18.7457 13.0775 18.5894C12.9212 18.4331 12.8334 18.2212 12.8334 18.0002C12.8334 17.7791 12.9212 17.5672 13.0775 17.4109C13.2337 17.2546 13.4457 17.1668 13.6667 17.1668H20.3334C20.5544 17.1668 20.7664 17.2546 20.9226 17.4109C21.0789 17.5672 21.1667 17.7791 21.1667 18.0002C21.1667 18.2212 21.0789 18.4331 20.9226 18.5894C20.7664 18.7457 20.5544 18.8335 20.3334 18.8335ZM22 15.5002H12C11.779 15.5002 11.5671 15.4124 11.4108 15.2561C11.2545 15.0998 11.1667 14.8878 11.1667 14.6668C11.1667 14.4458 11.2545 14.2339 11.4108 14.0776C11.5671 13.9213 11.779 13.8335 12 13.8335H22C22.2211 13.8335 22.433 13.9213 22.5893 14.0776C22.7456 14.2339 22.8334 14.4458 22.8334 14.6668C22.8334 14.8878 22.7456 15.0998 22.5893 15.2561C22.433 15.4124 22.2211 15.5002 22 15.5002Z" fill="#747474"/>
</g>
<defs>
<clipPath id="clip0_0_1">
<rect width="20" height="20" fill="white" transform="translate(7 8)"/>
</clipPath>
</defs>
</svg>
