<svg width="107" height="174" viewBox="0 0 107 174" fill="none" xmlns="http://www.w3.org/2000/svg">
<path d="M20.808 142.18C20.16 140.932 19.26 139.996 18.108 139.372C16.956 138.724 15.624 138.4 14.112 138.4C12.456 138.4 10.98 138.772 9.684 139.516C8.388 140.26 7.368 141.316 6.624 142.684C5.904 144.052 5.544 145.636 5.544 147.436C5.544 149.236 5.904 150.832 6.624 152.224C7.368 153.592 8.388 154.648 9.684 155.392C10.98 156.136 12.456 156.508 14.112 156.508C16.344 156.508 18.156 155.884 19.548 154.636C20.94 153.388 21.792 151.696 22.104 149.56H12.708V146.284H26.496V149.488C26.232 151.432 25.536 153.22 24.408 154.852C23.304 156.484 21.852 157.792 20.052 158.776C18.276 159.736 16.296 160.216 14.112 160.216C11.76 160.216 9.612 159.676 7.668 158.596C5.724 157.492 4.176 155.968 3.024 154.024C1.896 152.08 1.332 149.884 1.332 147.436C1.332 144.988 1.896 142.792 3.024 140.848C4.176 138.904 5.724 137.392 7.668 136.312C9.636 135.208 11.784 134.656 14.112 134.656C16.776 134.656 19.14 135.316 21.204 136.636C23.292 137.932 24.804 139.78 25.74 142.18H20.808ZM32.6318 137.536C31.8878 137.536 31.2638 137.284 30.7598 136.78C30.2558 136.276 30.0038 135.652 30.0038 134.908C30.0038 134.164 30.2558 133.54 30.7598 133.036C31.2638 132.532 31.8878 132.28 32.6318 132.28C33.3518 132.28 33.9638 132.532 34.4678 133.036C34.9718 133.54 35.2238 134.164 35.2238 134.908C35.2238 135.652 34.9718 136.276 34.4678 136.78C33.9638 137.284 33.3518 137.536 32.6318 137.536ZM34.6478 140.164V160H30.5438V140.164H34.6478ZM44.8239 143.512V154.492C44.8239 155.236 44.9919 155.776 45.3279 156.112C45.6879 156.424 46.2879 156.58 47.1279 156.58H49.6479V160H46.4079C44.5599 160 43.1439 159.568 42.1599 158.704C41.1759 157.84 40.6839 156.436 40.6839 154.492V143.512H38.3439V140.164H40.6839V135.232H44.8239V140.164H49.6479V143.512H44.8239ZM58.2185 143.512V154.492C58.2185 155.236 58.3865 155.776 58.7225 156.112C59.0825 156.424 59.6825 156.58 60.5225 156.58H63.0425V160H59.8025C57.9545 160 56.5385 159.568 55.5545 158.704C54.5705 157.84 54.0785 156.436 54.0785 154.492V143.512H51.7385V140.164H54.0785V135.232H58.2185V140.164H63.0425V143.512H58.2185ZM65.457 149.992C65.457 148 65.865 146.236 66.681 144.7C67.521 143.164 68.649 141.976 70.065 141.136C71.505 140.272 73.089 139.84 74.817 139.84C76.377 139.84 77.733 140.152 78.885 140.776C80.061 141.376 80.997 142.132 81.693 143.044V140.164H85.833V160H81.693V157.048C80.997 157.984 80.049 158.764 78.849 159.388C77.649 160.012 76.281 160.324 74.745 160.324C73.041 160.324 71.481 159.892 70.065 159.028C68.649 158.14 67.521 156.916 66.681 155.356C65.865 153.772 65.457 151.984 65.457 149.992ZM81.693 150.064C81.693 148.696 81.405 147.508 80.829 146.5C80.277 145.492 79.545 144.724 78.633 144.196C77.721 143.668 76.737 143.404 75.681 143.404C74.625 143.404 73.641 143.668 72.729 144.196C71.817 144.7 71.073 145.456 70.497 146.464C69.945 147.448 69.669 148.624 69.669 149.992C69.669 151.36 69.945 152.56 70.497 153.592C71.073 154.624 71.817 155.416 72.729 155.968C73.665 156.496 74.649 156.76 75.681 156.76C76.737 156.76 77.721 156.496 78.633 155.968C79.545 155.44 80.277 154.672 80.829 153.664C81.405 152.632 81.693 151.432 81.693 150.064ZM99.7194 149.956L106.127 160H101.483L97.1994 153.268L93.1674 160H88.8834L95.2914 150.244L88.8834 140.164H93.5274L97.8114 146.896L101.843 140.164H106.127L99.7194 149.956Z" fill="#FAFAFA"/>
<path d="M103 50.0027C103 59.8918 100.067 69.5585 94.5723 77.7807C89.0778 86.0029 81.2686 92.411 72.132 96.195C62.9955 99.9789 52.9421 100.968 43.2431 99.0387C33.5441 97.1089 24.6352 92.3463 17.6429 85.3533C10.6506 78.3603 5.88909 69.4514 3.96032 59.7522C2.03155 50.053 3.02201 39.9994 6.80687 30.8632C10.5917 21.7271 17.0009 13.9182 25.2237 8.42454C33.4465 2.93087 43.1138 -0.000508136 53.0029 6.60676e-08C59.5692 -0.000168726 66.071 1.29256 72.1374 3.80544C78.2038 6.31832 83.7157 10.002 88.3585 14.6452C93.0013 19.2885 96.6842 24.8009 99.1964 30.8676C101.709 36.9343 103.001 43.4365 103 50.0027Z" fill="#FEDD59"/>
<path d="M66.9466 37.9119C65.7809 35.7325 63.9788 33.9599 61.7805 32.8304C59.3219 31.6171 56.6059 31.0182 53.865 31.0845C51.5148 30.985 49.1706 31.395 46.9938 32.2865C44.8169 33.178 42.8589 34.5299 41.2536 36.2494C38.0947 39.6935 36.5146 44.2927 36.5137 50.0477C36.5137 56.1805 38.1729 60.9675 41.4911 64.4082C44.8092 67.8488 49.3751 69.5705 55.1884 69.5731C58.7963 69.6889 62.3437 68.6259 65.2933 66.5449C68.1662 64.3425 70.2708 61.2896 71.3073 57.8211H50.734V45.8722H86.0027V60.9465C84.7539 65.0844 82.6745 68.9244 79.8911 72.2311C76.8926 75.8015 73.1562 78.6802 68.9394 80.6694C64.2584 82.8751 59.1339 83.9779 53.9601 83.8921C47.8233 84.0005 41.7634 82.5149 36.3726 79.5804C31.3111 76.7931 27.1375 72.6354 24.3302 67.585C21.4966 62.1641 20.0166 56.1382 20.0166 50.0214C20.0166 43.9046 21.4966 37.8787 24.3302 32.4578C27.1187 27.3977 31.275 23.2245 36.3237 20.4154C41.6968 17.4784 47.7426 15.992 53.865 16.1024C61.8256 16.1024 68.5411 18.0296 74.0117 21.884C79.4685 25.7191 83.3314 31.4207 84.8697 37.9106L66.9466 37.9119Z" fill="#424242"/>
</svg>
