<svg width="60" height="60" viewBox="0 0 60 60" fill="none" xmlns="http://www.w3.org/2000/svg">
<path d="M60.0002 30.0016C59.9999 35.9351 58.2401 41.7351 54.9434 46.6684C51.6467 51.6017 46.9612 55.4466 41.4792 57.717C35.9973 59.9873 29.9652 60.5811 24.1458 59.4232C18.3264 58.2654 12.9811 55.4078 8.78575 51.212C4.59037 47.0162 1.73346 41.6708 0.576193 35.8513C-0.58107 30.0318 0.0132037 23.9996 2.28412 18.5179C4.55505 13.0362 8.40054 8.35093 13.3342 5.05473C18.2679 1.75852 24.0683 -0.000304882 30.0017 3.96406e-08C33.9415 -0.000101236 37.8426 0.775537 41.4824 2.28326C45.1223 3.79099 48.4294 6.00117 51.2151 8.78714C54.0008 11.5731 56.2105 14.8806 57.7178 18.5206C59.2252 22.1606 60.0007 26.0619 60.0002 30.0016Z" fill="#FEDD59"/>
<path d="M38.368 22.7468C37.6685 21.4392 36.5873 20.3757 35.2683 19.698C33.7931 18.97 32.1635 18.6106 30.519 18.6504C29.1089 18.5907 27.7024 18.8367 26.3963 19.3716C25.0901 19.9065 23.9153 20.7177 22.9522 21.7494C21.0568 23.8158 20.1088 26.5753 20.1082 30.0284C20.1082 33.708 21.1037 36.5802 23.0946 38.6446C25.0855 40.709 27.8251 41.742 31.313 41.7435C33.4778 41.8131 35.6062 41.1753 37.376 39.9266C39.0997 38.6052 40.3625 36.7735 40.9844 34.6924H28.6404V27.523H49.8016V36.5676C49.0524 39.0504 47.8047 41.3543 46.1347 43.3384C44.3355 45.4806 42.0937 47.2078 39.5636 48.4014C36.7551 49.7248 33.6804 50.3864 30.576 50.335C26.894 50.4 23.258 49.5087 20.0236 47.7479C16.9867 46.0756 14.4825 43.581 12.7981 40.5507C11.0979 37.2982 10.21 33.6826 10.21 30.0125C10.21 26.3425 11.0979 22.7269 12.7981 19.4744C14.4712 16.4383 16.965 13.9344 19.9942 12.2489C23.2181 10.4868 26.8455 9.59492 30.519 9.66115C35.2953 9.66115 39.3246 10.8175 42.607 13.1301C45.8811 15.4312 48.1988 18.8521 49.1218 22.7461L38.368 22.7468Z" fill="#424242"/>
</svg>
