<svg width="35" height="35" viewBox="0 0 35 35" fill="none" xmlns="http://www.w3.org/2000/svg">
<rect width="35" height="35" rx="12" fill="#FEDD59"/>
<g clip-path="url(#clip0_0_1)">
<path d="M26.4608 16.699L26.4594 16.6977L18.301 8.53957C17.9532 8.1916 17.4909 8 16.9991 8C16.5073 8 16.045 8.19148 15.6971 8.53941L7.5429 16.6934C7.54017 16.6961 7.53743 16.699 7.5347 16.7018C6.82056 17.42 6.82181 18.5853 7.53821 19.3017C7.86548 19.6291 8.29778 19.8188 8.75997 19.8386C8.77872 19.8405 8.79767 19.8414 8.81673 19.8414H9.14189V25.8453C9.14189 27.0334 10.1085 28 11.2969 28H14.4887C14.8122 28 15.0746 27.7377 15.0746 27.4141V22.707C15.0746 22.1649 15.5156 21.7239 16.0578 21.7239H17.9404C18.4826 21.7239 18.9235 22.1649 18.9235 22.707V27.4141C18.9235 27.7377 19.1858 28 19.5095 28H22.7013C23.8897 28 24.8563 27.0334 24.8563 25.8453V19.8414H25.1578C25.6495 19.8414 26.1118 19.6499 26.4599 19.302C27.177 18.5844 27.1773 17.4171 26.4608 16.699Z" fill="#424242"/>
</g>
<defs>
<clipPath id="clip0_0_1">
<rect width="20" height="20" fill="white" transform="translate(7 8)"/>
</clipPath>
</defs>
</svg>
