<svg width="35" height="35" viewBox="0 0 35 35" fill="none" xmlns="http://www.w3.org/2000/svg">
<rect x="-0.000610352" width="35" height="35" rx="12" fill="#555555"/>
<path d="M19.5 8V13H24.5L19.5 8Z" fill="#747474"/>
<path d="M19.5 14.25C18.8112 14.25 18.25 13.6887 18.25 13V8H10.75C10.0612 8 9.5 8.56125 9.5 9.25V26.75C9.5 27.44 10.0612 28 10.75 28H23.25C23.94 28 24.5 27.44 24.5 26.75V14.25H19.5ZM14.5 25.5H12V21.75H14.5V25.5ZM18.25 25.5H15.75V19.25H18.25V25.5ZM22 25.5H19.5V16.75H22V25.5Z" fill="#747474"/>
</svg>
