<svg width="55" height="84" viewBox="0 0 55 84" fill="none" xmlns="http://www.w3.org/2000/svg">
<g clip-path="url(#clip0_11809_483)">
<path d="M17.2895 0.789551L14.9698 2.65439C14.4976 3.03202 14.1155 3.51191 13.852 4.05857C13.5885 4.60523 13.4502 5.20466 13.4474 5.8125V6.09344C13.4472 6.70052 13.5821 7.29991 13.8423 7.84736C14.1025 8.3948 14.4812 8.87633 14.9506 9.25639L24.604 17.0645C25.0147 17.3991 25.356 17.812 25.6082 18.2798C25.8605 18.7476 26.0188 19.2609 26.0742 19.7904C26.1295 20.32 26.0807 20.8554 25.9306 21.3659C25.7805 21.8764 25.5321 22.352 25.1995 22.7656L22.6733 25.914C22.1674 26.5344 21.8578 27.2938 21.7848 28.0937L21.6695 29.3143C21.6151 29.9453 21.7074 30.5803 21.9392 31.169C22.171 31.7576 22.5358 32.2835 23.0047 32.7049L40.6016 48.4373C40.963 48.7581 41.3776 49.0122 41.8263 49.1881L42.4746 49.44C43.0625 49.6671 43.695 49.7521 44.3214 49.6881C44.9477 49.6242 45.5505 49.4131 46.0814 49.0719L46.5617 48.7619C47.0852 48.4234 47.524 47.9676 47.8439 47.4298C48.1638 46.8921 48.3562 46.287 48.4059 45.6619L48.502 44.4461C48.552 43.8185 48.456 43.1878 48.2217 42.6042C47.9874 42.0206 47.6213 41.5003 47.1524 41.0846L34.776 30.1183C34.031 29.4552 33.5559 28.5374 33.4424 27.5418C33.3289 26.5463 33.585 25.5436 34.1612 24.7273L36.9468 20.7699C37.4736 20.0267 37.7344 19.1249 37.6864 18.2125C37.6579 17.6346 37.5068 17.0697 37.2433 16.5558C36.9799 16.0419 36.6101 15.591 36.1591 15.2336L17.9091 0.789551" fill="#4DA747"/>
<path d="M26.8755 40.3909L7.82596 24.4121C6.07012 22.9393 3.46291 23.1809 2.00259 24.9518L0.952311 26.2254C-0.508005 27.9963 -0.268436 30.6258 1.4874 32.0986L20.5369 48.0774C22.2928 49.5502 24.9 49.3086 26.3603 47.5377L27.4106 46.2641C28.8709 44.4932 28.6313 41.8637 26.8755 40.3909Z" fill="#EBC82A"/>
<path d="M44.5398 16.5849C49.0807 16.5849 52.7619 12.8723 52.7619 8.29247C52.7619 3.71267 49.0807 0 44.5398 0C39.9988 0 36.3176 3.71267 36.3176 8.29247C36.3176 12.8723 39.9988 16.5849 44.5398 16.5849Z" fill="#EBC82A"/>
<path d="M0.715576 73.7894V59.8201H3.81329V73.7894H0.715576ZM3.1169 73.7894V71.0575H9.95588V73.7894H3.1169Z" fill="#4DA747"/>
<path d="M15.3685 74.0074C14.4635 74.0219 13.5645 73.8573 12.7222 73.523C11.9447 73.205 11.2521 72.7073 10.7003 72.0699L12.703 70.05C12.9805 70.4423 13.3592 70.7506 13.798 70.9413C14.2724 71.1617 14.7886 71.2757 15.3109 71.2755C15.7364 71.2868 16.1588 71.199 16.5451 71.0188C16.8861 70.8593 17.1782 70.6099 17.3904 70.2971C17.5944 69.9583 17.7022 69.5696 17.7022 69.1733C17.7022 68.777 17.5944 68.3883 17.3904 68.0496C17.1666 67.7284 16.8568 67.478 16.4971 67.3279C16.0635 67.154 15.5996 67.07 15.1332 67.0808C14.8716 67.0832 14.6103 67.0994 14.3503 67.1293C14.1166 67.1532 13.8862 67.2036 13.6636 67.2794L15.0371 65.5405C15.4165 65.434 15.7671 65.3419 16.0937 65.2693C16.3967 65.2025 16.7057 65.1668 17.0158 65.1627C17.6876 65.1477 18.3511 65.315 18.9369 65.6471C19.5053 65.9879 19.969 66.4808 20.2768 67.0711C20.6293 67.7974 20.798 68.6004 20.7678 69.4084C20.7376 70.2164 20.5096 71.0043 20.1039 71.7017C19.641 72.4225 18.9871 72.998 18.2165 73.3631C17.3295 73.7977 16.3545 74.0182 15.3685 74.0074ZM11.5648 62.4841V59.8201H20.5073V61.559L18.0772 62.4841H11.5648ZM13.6636 67.3279V65.5696L17.0254 61.6122H20.4977L17.0062 65.6132L13.6636 67.3279Z" fill="#4DA747"/>
<path d="M22.4139 73.7894V59.4229H25.454V66.5286L24.9738 68.8439L25.4252 71.198V73.7894H22.4139ZM27.9466 73.988C27.3276 73.9964 26.7154 73.857 26.16 73.5811C25.6449 73.3276 25.1971 72.954 24.8537 72.4912C24.5252 72.0445 24.3257 71.5147 24.2774 70.9606V66.9016C24.3241 66.3514 24.5275 65.8265 24.8633 65.3903C25.2117 64.9431 25.6635 64.5888 26.1792 64.3586C26.736 64.1121 27.3386 63.9883 27.9466 63.9953C28.7924 63.9782 29.6255 64.2051 30.3479 64.6492C31.0483 65.0812 31.6206 65.6952 32.0048 66.4269C32.4026 67.2232 32.6098 68.1024 32.6098 68.9941C32.6098 69.8857 32.4026 70.7649 32.0048 71.5612C31.6196 72.2935 31.0476 72.9088 30.3479 73.3437C29.6243 73.784 28.7914 74.0074 27.9466 73.988ZM27.3751 71.2367C27.7574 71.2425 28.1341 71.1437 28.4653 70.9509C28.7875 70.7578 29.0514 70.4798 29.2289 70.1469C29.4181 69.7874 29.5171 69.3866 29.5171 68.9795C29.5171 68.5725 29.4181 68.1717 29.2289 67.8122C29.0525 67.4797 28.7882 67.2031 28.4653 67.013C28.135 66.8181 27.7577 66.7192 27.3751 66.7272C26.9833 66.7186 26.5966 66.8174 26.2561 67.013C25.9403 67.203 25.6853 67.4804 25.5213 67.8122C25.3408 68.1671 25.2501 68.5614 25.2571 68.9602C25.2491 69.3756 25.3432 69.7866 25.5309 70.1566C25.6993 70.4928 25.9614 70.7722 26.2849 70.9606C26.6186 71.1459 26.9942 71.241 27.3751 71.2367Z" fill="#4DA747"/>
<path d="M34.0988 73.7895V64.1747H37.1196V73.7895H34.0988ZM40.4191 73.7895V68.2967C40.425 68.0747 40.3854 67.8538 40.3027 67.6479C40.2201 67.4421 40.0962 67.2556 39.9388 67.1003C39.7852 66.9437 39.6018 66.82 39.3996 66.7367C39.1974 66.6535 38.9805 66.6124 38.7621 66.6159C38.4675 66.6124 38.1767 66.684 37.9169 66.8242C37.6702 66.9609 37.4657 67.1637 37.3261 67.4103C37.1778 67.6743 37.1031 67.9739 37.11 68.2773L35.9526 67.7058C35.9384 67.0114 36.1127 66.3263 36.4569 65.7247C36.7812 65.1698 37.2539 64.7182 37.8208 64.4217C38.4291 64.0986 39.1072 63.9322 39.7947 63.9373C40.4364 63.9258 41.0691 64.0901 41.6256 64.4125C42.1821 64.7349 42.6415 65.2034 42.9549 65.7683C43.2716 66.3254 43.4372 66.9569 43.4351 67.5992V73.7507L40.4191 73.7895Z" fill="#4DA747"/>
<path d="M49.2896 73.9881C48.4644 73.9985 47.6538 73.7681 46.9555 73.3245C46.2648 72.8846 45.7002 72.2701 45.3178 71.542C44.9072 70.7524 44.7007 69.8711 44.7175 68.9797C44.7036 68.0824 44.9098 67.1955 45.3178 66.398C45.6914 65.668 46.254 65.0537 46.9459 64.6203C47.65 64.184 48.4634 63.9605 49.2896 63.9761C49.8895 63.9677 50.4836 64.0952 51.0282 64.3491C51.5265 64.5882 51.9599 64.9455 52.2913 65.3905C52.6165 65.8297 52.8083 66.3547 52.8436 66.9017V71.0576C52.8096 71.6048 52.6213 72.1308 52.3009 72.5737C51.9764 73.0203 51.5452 73.3769 51.0474 73.6103C50.4975 73.8691 49.8964 73.9982 49.2896 73.9881ZM49.9188 71.2369C50.2058 71.2485 50.492 71.1979 50.7579 71.0884C51.0239 70.9789 51.2634 70.8132 51.4604 70.6023C51.8558 70.1507 52.0624 69.5622 52.0367 68.9603C52.0435 68.5596 51.9563 68.1629 51.7822 67.8027C51.617 67.471 51.358 67.1962 51.0378 67.0131C50.6973 66.8175 50.3106 66.7188 49.9188 66.7273C49.5362 66.7194 49.1589 66.8183 48.8286 67.0131C48.5057 67.2032 48.2413 67.4799 48.065 67.8123C47.8789 68.1728 47.7818 68.5733 47.7818 68.9797C47.7818 69.3861 47.8789 69.7865 48.065 70.147C48.2424 70.48 48.5064 70.7579 48.8286 70.9511C49.1597 71.1438 49.5365 71.2426 49.9188 71.2369ZM51.9215 73.7895V71.203L52.3729 68.8489L51.9215 66.5336V64.1795H54.8847V73.7944L51.9215 73.7895Z" fill="#4DA747"/>
<path d="M2.23805 81.176C2.30091 81.238 2.3765 81.2854 2.45949 81.3147C2.54248 81.344 2.63084 81.3545 2.71832 81.3456H2.872C2.90562 81.3456 2.92483 81.3456 2.93444 81.3746C2.94029 81.3919 2.94029 81.4106 2.93444 81.4279V82.2174C2.94029 82.2347 2.94029 82.2535 2.93444 82.2707C2.93444 82.2707 2.90562 82.2998 2.872 82.2998H2.39174C2.2012 82.3119 2.0104 82.2807 1.83337 82.2086C1.65634 82.1365 1.49758 82.0253 1.36877 81.8832C1.11825 81.5687 0.991697 81.172 1.01337 80.7692V76.2161H2.08437V80.5754C2.0622 80.7878 2.11677 81.001 2.23805 81.176Z" fill="#EBC82A"/>
<path d="M3.93339 81.3746C3.93924 81.3919 3.93924 81.4107 3.93339 81.4279V82.2175C3.93924 82.2347 3.93924 82.2535 3.93339 82.2707C3.93339 82.2707 3.90457 82.2998 3.87095 82.2998H2.84799C2.83595 82.3011 2.8238 82.299 2.81281 82.2939C2.80182 82.2888 2.7924 82.2808 2.78555 82.2707C2.78128 82.2532 2.78128 82.235 2.78555 82.2175V81.4279C2.78128 81.4104 2.78128 81.3921 2.78555 81.3746C2.7924 81.3646 2.80182 81.3566 2.81281 81.3515C2.8238 81.3463 2.83595 81.3443 2.84799 81.3456H3.87095C3.90457 81.3456 3.92378 81.3746 3.93339 81.3746Z" fill="#EBC82A"/>
<path d="M4.95634 81.3746C4.96219 81.3919 4.96219 81.4107 4.95634 81.4279V82.2175C4.96219 82.2347 4.96219 82.2535 4.95634 82.2707C4.95634 82.2707 4.92752 82.2998 4.8939 82.2998H3.87094C3.8589 82.3011 3.84675 82.299 3.83576 82.2939C3.82477 82.2888 3.81535 82.2808 3.8085 82.2707C3.80423 82.2532 3.80423 82.235 3.8085 82.2175V81.4279C3.80423 81.4104 3.80423 81.3921 3.8085 81.3746C3.81535 81.3646 3.82477 81.3566 3.83576 81.3515C3.84675 81.3463 3.8589 81.3443 3.87094 81.3456H4.8939C4.92752 81.3456 4.94673 81.3746 4.95634 81.3746Z" fill="#EBC82A"/>
<path d="M5.98409 81.3746C5.98836 81.3921 5.98836 81.4104 5.98409 81.4279V82.2175C5.98836 82.235 5.98836 82.2532 5.98409 82.2707C5.97616 82.2808 5.96586 82.2888 5.95412 82.2939C5.94238 82.2989 5.92957 82.301 5.91685 82.2998H4.89389C4.88185 82.3011 4.8697 82.299 4.85871 82.2939C4.84772 82.2888 4.8383 82.2808 4.83145 82.2707C4.82718 82.2532 4.82718 82.235 4.83145 82.2175V81.4279C4.82718 81.4104 4.82718 81.3921 4.83145 81.3746C4.8383 81.3646 4.84772 81.3566 4.85871 81.3515C4.8697 81.3463 4.88185 81.3443 4.89389 81.3456H5.91685C5.92957 81.3444 5.94238 81.3465 5.95412 81.3515C5.96586 81.3566 5.97616 81.3645 5.98409 81.3746Z" fill="#EBC82A"/>
<path d="M7.00704 81.3746C7.01131 81.3921 7.01131 81.4104 7.00704 81.4279V82.2174C7.01131 82.2349 7.01131 82.2532 7.00704 82.2707C6.99911 82.2808 6.98881 82.2887 6.97707 82.2938C6.96533 82.2989 6.95252 82.3009 6.9398 82.2998H5.91684C5.90485 82.3005 5.89286 82.2983 5.88196 82.2932C5.87105 82.2881 5.86158 82.2804 5.8544 82.2707C5.85013 82.2532 5.85013 82.2349 5.8544 82.2174V81.4279C5.85013 81.4104 5.85013 81.3921 5.8544 81.3746C5.86158 81.3649 5.87105 81.3571 5.88196 81.3521C5.89286 81.347 5.90485 81.3447 5.91684 81.3455H6.9398C6.95252 81.3444 6.96533 81.3464 6.97707 81.3515C6.98881 81.3566 6.99911 81.3645 7.00704 81.3746Z" fill="#EBC82A"/>
<path d="M8.02999 81.3747C8.03426 81.3922 8.03426 81.4105 8.02999 81.428V82.2175C8.03426 82.235 8.03426 82.2533 8.02999 82.2708C8.02281 82.2805 8.01333 82.2882 8.00243 82.2933C7.99153 82.2984 7.97954 82.3006 7.96755 82.2998H6.93978C6.9278 82.3006 6.91581 82.2984 6.90491 82.2933C6.894 82.2882 6.88453 82.2805 6.87735 82.2708C6.87308 82.2533 6.87308 82.235 6.87735 82.2175V81.428C6.87308 81.4105 6.87308 81.3922 6.87735 81.3747C6.88453 81.365 6.894 81.3572 6.90491 81.3521C6.91581 81.3471 6.9278 81.3448 6.93978 81.3456H7.96755C7.97954 81.3448 7.99153 81.3471 8.00243 81.3521C8.01333 81.3572 8.02281 81.365 8.02999 81.3747Z" fill="#EBC82A"/>
<path d="M9.05294 81.3746C9.05721 81.3921 9.05721 81.4104 9.05294 81.4279V82.2175C9.05721 82.235 9.05721 82.2532 9.05294 82.2707C9.04609 82.2808 9.03667 82.2888 9.02568 82.2939C9.01469 82.299 9.00254 82.3011 8.9905 82.2998H7.96754C7.95482 82.301 7.94201 82.2989 7.93027 82.2939C7.91853 82.2888 7.90823 82.2808 7.9003 82.2707C7.89603 82.2532 7.89603 82.235 7.9003 82.2175V81.4279C7.89603 81.4104 7.89603 81.3921 7.9003 81.3746C7.90823 81.3645 7.91853 81.3566 7.93027 81.3515C7.94201 81.3465 7.95482 81.3444 7.96754 81.3456H8.9905C9.00254 81.3443 9.01469 81.3463 9.02568 81.3515C9.03667 81.3566 9.04609 81.3646 9.05294 81.3746Z" fill="#EBC82A"/>
<path d="M10.0855 81.3747C10.0898 81.3922 10.0898 81.4105 10.0855 81.4279V82.2175C10.0898 82.235 10.0898 82.2533 10.0855 82.2708C10.0786 82.2808 10.0692 82.2888 10.0582 82.2939C10.0472 82.2991 10.0351 82.3011 10.0231 82.2998H8.99049C8.97777 82.301 8.96496 82.299 8.95322 82.2939C8.94148 82.2888 8.93118 82.2809 8.92325 82.2708C8.91898 82.2533 8.91898 82.235 8.92325 82.2175V81.4279C8.91898 81.4105 8.91898 81.3922 8.92325 81.3747C8.93118 81.3646 8.94148 81.3566 8.95322 81.3515C8.96496 81.3465 8.97777 81.3444 8.99049 81.3456H10.0135C10.027 81.3424 10.0411 81.3434 10.054 81.3486C10.0669 81.3538 10.0779 81.3629 10.0855 81.3747Z" fill="#EBC82A"/>
<path d="M11.0989 81.3748C11.1032 81.3923 11.1032 81.4105 11.0989 81.428V82.2176C11.1032 82.2351 11.1032 82.2534 11.0989 82.2709C11.092 82.2809 11.0826 82.2889 11.0716 82.294C11.0606 82.2992 11.0485 82.3012 11.0364 82.2999H10.0135C9.97986 82.2999 9.96065 82.2999 9.95105 82.2709C9.94519 82.2536 9.94519 82.2348 9.95105 82.2176V81.428C9.94519 81.4108 9.94519 81.392 9.95105 81.3748C9.95105 81.3748 9.97986 81.3457 10.0135 81.3457H11.0461C11.0565 81.3461 11.0667 81.3489 11.0759 81.3539C11.085 81.359 11.0929 81.3661 11.0989 81.3748Z" fill="#EBC82A"/>
<path d="M12.1219 81.3748C12.1261 81.3923 12.1261 81.4105 12.1219 81.428V82.2176C12.1261 82.2351 12.1261 82.2534 12.1219 82.2709C12.115 82.2809 12.1056 82.2889 12.0946 82.294C12.0836 82.2992 12.0715 82.3012 12.0594 82.2999H11.0461C11.0125 82.2999 10.9932 82.2999 10.9836 82.2709C10.9778 82.2536 10.9778 82.2348 10.9836 82.2176V81.428C10.9778 81.4108 10.9778 81.392 10.9836 81.3748C10.9836 81.3748 11.0125 81.3457 11.0461 81.3457H12.069C12.0795 81.3461 12.0897 81.3489 12.0989 81.3539C12.108 81.359 12.1159 81.3661 12.1219 81.3748Z" fill="#EBC82A"/>
<path d="M13.1448 81.3746C13.1491 81.3921 13.1491 81.4104 13.1448 81.4279V82.2175C13.1491 82.235 13.1491 82.2532 13.1448 82.2707C13.1379 82.2808 13.1285 82.2888 13.1175 82.2939C13.1065 82.299 13.0944 82.3011 13.0823 82.2998H12.0594C12.0258 82.2998 12.0066 82.2998 11.9969 82.2707C11.9911 82.2535 11.9911 82.2347 11.9969 82.2175V81.4279C11.9911 81.4107 11.9911 81.3919 11.9969 81.3746C11.9969 81.3746 12.0258 81.3456 12.0594 81.3456H13.0823C13.0944 81.3443 13.1065 81.3463 13.1175 81.3515C13.1285 81.3566 13.1379 81.3646 13.1448 81.3746Z" fill="#EBC82A"/>
<path d="M14.1679 81.3746C14.1721 81.3921 14.1721 81.4104 14.1679 81.4279V82.2175C14.1721 82.235 14.1721 82.2532 14.1679 82.2707C14.161 82.2808 14.1516 82.2888 14.1406 82.2939C14.1296 82.299 14.1175 82.3011 14.1054 82.2998H13.0825C13.0488 82.2998 13.0296 82.2998 13.02 82.2707C13.0142 82.2535 13.0142 82.2347 13.02 82.2175V81.4279C13.0142 81.4107 13.0142 81.3919 13.02 81.3746C13.02 81.3746 13.0488 81.3456 13.0825 81.3456H14.1054C14.1175 81.3443 14.1296 81.3463 14.1406 81.3515C14.1516 81.3566 14.161 81.3646 14.1679 81.3746Z" fill="#EBC82A"/>
<path d="M15.1908 81.3746C15.1951 81.3921 15.1951 81.4104 15.1908 81.4279V82.2175C15.1951 82.235 15.1951 82.2532 15.1908 82.2707C15.184 82.2808 15.1745 82.2888 15.1636 82.2939C15.1526 82.299 15.1404 82.3011 15.1284 82.2998H14.1054C14.0718 82.2998 14.0526 82.2998 14.043 82.2707C14.0391 82.2532 14.0391 82.235 14.043 82.2175V81.4279C14.0391 81.4104 14.0391 81.3922 14.043 81.3746C14.043 81.3746 14.0718 81.3456 14.1054 81.3456H15.1284C15.1404 81.3443 15.1526 81.3463 15.1636 81.3515C15.1745 81.3566 15.184 81.3646 15.1908 81.3746Z" fill="#EBC82A"/>
<path d="M16.2138 81.3746C16.218 81.3921 16.218 81.4104 16.2138 81.4279V82.2175C16.218 82.235 16.218 82.2532 16.2138 82.2707C16.2069 82.2808 16.1975 82.2888 16.1865 82.2939C16.1755 82.299 16.1634 82.3011 16.1513 82.2998H15.1284C15.0947 82.2998 15.0755 82.2998 15.0659 82.2707C15.062 82.2532 15.062 82.235 15.0659 82.2175V81.4279C15.062 81.4104 15.062 81.3922 15.0659 81.3746C15.0659 81.3746 15.0947 81.3456 15.1284 81.3456H16.1513C16.1634 81.3443 16.1755 81.3463 16.1865 81.3515C16.1975 81.3566 16.2069 81.3646 16.2138 81.3746Z" fill="#EBC82A"/>
<path d="M17.2367 81.3746C17.241 81.3921 17.241 81.4104 17.2367 81.4279V82.2175C17.241 82.235 17.241 82.2532 17.2367 82.2707C17.2299 82.2808 17.2204 82.2888 17.2095 82.2939C17.1985 82.299 17.1863 82.3011 17.1743 82.2998H16.1513C16.1177 82.2998 16.0985 82.2998 16.0889 82.2707C16.085 82.2532 16.085 82.235 16.0889 82.2175V81.4279C16.085 81.4104 16.085 81.3922 16.0889 81.3746C16.0889 81.3746 16.1177 81.3456 16.1513 81.3456H17.1743C17.1863 81.3443 17.1985 81.3463 17.2095 81.3515C17.2204 81.3566 17.2299 81.3646 17.2367 81.3746Z" fill="#EBC82A"/>
<path d="M18.2501 81.3748C18.2543 81.3923 18.2543 81.4105 18.2501 81.428V82.2176C18.2543 82.2351 18.2543 82.2534 18.2501 82.2709C18.2501 82.2709 18.2213 82.2999 18.1876 82.2999H17.1743C17.1407 82.2999 17.1215 82.2999 17.1118 82.2709C17.1076 82.2534 17.1076 82.2351 17.1118 82.2176V81.428C17.1076 81.4105 17.1076 81.3923 17.1118 81.3748C17.1118 81.3748 17.1407 81.3457 17.1743 81.3457H18.1972C18.2501 81.3457 18.2501 81.3748 18.2501 81.3748Z" fill="#EBC82A"/>
<path d="M19.2826 81.3748C19.2869 81.3923 19.2869 81.4105 19.2826 81.428V82.2176C19.2869 82.2351 19.2869 82.2534 19.2826 82.2709C19.2826 82.2709 19.2538 82.2999 19.2202 82.2999H18.1972C18.1636 82.2999 18.1444 82.2999 18.1348 82.2709C18.1305 82.2534 18.1305 82.2351 18.1348 82.2176V81.428C18.1305 81.4105 18.1305 81.3923 18.1348 81.3748C18.1348 81.3748 18.1636 81.3457 18.1972 81.3457H19.2106C19.2538 81.3457 19.273 81.3748 19.2826 81.3748Z" fill="#EBC82A"/>
<path d="M20.3055 81.3748C20.3098 81.3923 20.3098 81.4105 20.3055 81.428V82.2176C20.3098 82.2351 20.3098 82.2534 20.3055 82.2709C20.3055 82.2709 20.2767 82.2999 20.2431 82.2999H19.2105C19.1769 82.2999 19.1577 82.2999 19.1481 82.2709C19.1438 82.2534 19.1438 82.2351 19.1481 82.2176V81.428C19.1438 81.4105 19.1438 81.3923 19.1481 81.3748C19.1481 81.3748 19.1769 81.3457 19.2105 81.3457H20.2335C20.2767 81.3457 20.2959 81.3748 20.3055 81.3748Z" fill="#EBC82A"/>
<path d="M21.3285 81.3748C21.3328 81.3923 21.3328 81.4105 21.3285 81.428V82.2176C21.3328 82.2351 21.3328 82.2534 21.3285 82.2709C21.3285 82.2709 21.2997 82.2999 21.2661 82.2999H20.2431C20.2095 82.2999 20.1903 82.2999 20.1807 82.2709C20.1764 82.2534 20.1764 82.2351 20.1807 82.2176V81.428C20.1764 81.4105 20.1764 81.3923 20.1807 81.3748C20.1807 81.3748 20.2095 81.3457 20.2431 81.3457H21.2661C21.2997 81.3457 21.3189 81.3748 21.3285 81.3748Z" fill="#EBC82A"/>
<path d="M22.3515 81.3746C22.3554 81.3922 22.3554 81.4104 22.3515 81.4279V82.2175C22.3554 82.235 22.3554 82.2532 22.3515 82.2707C22.3515 82.2707 22.3227 82.2998 22.289 82.2998H21.2661C21.254 82.3011 21.2419 82.299 21.2309 82.2939C21.2199 82.2888 21.2105 82.2808 21.2036 82.2707C21.1994 82.2532 21.1994 82.235 21.2036 82.2175V81.4279C21.1994 81.4104 21.1994 81.3921 21.2036 81.3746C21.2105 81.3646 21.2199 81.3566 21.2309 81.3515C21.2419 81.3463 21.254 81.3443 21.2661 81.3456H22.289C22.3227 81.3456 22.3419 81.3746 22.3515 81.3746Z" fill="#EBC82A"/>
<path d="M23.3744 81.3746C23.3783 81.3922 23.3783 81.4104 23.3744 81.4279V82.2175C23.3783 82.235 23.3783 82.2532 23.3744 82.2707C23.3744 82.2707 23.3456 82.2998 23.312 82.2998H22.289C22.277 82.3011 22.2648 82.299 22.2538 82.2939C22.2429 82.2888 22.2334 82.2808 22.2266 82.2707C22.2223 82.2532 22.2223 82.235 22.2266 82.2175V81.4279C22.2223 81.4104 22.2223 81.3921 22.2266 81.3746C22.2334 81.3646 22.2429 81.3566 22.2538 81.3515C22.2648 81.3463 22.277 81.3443 22.289 81.3456H23.312C23.3456 81.3456 23.3648 81.3746 23.3744 81.3746Z" fill="#EBC82A"/>
<path d="M24.3975 81.3746C24.4034 81.3919 24.4034 81.4107 24.3975 81.4279V82.2175C24.4034 82.2347 24.4034 82.2535 24.3975 82.2707C24.3975 82.2707 24.3687 82.2998 24.3351 82.2998H23.3121C23.3001 82.3011 23.2879 82.299 23.2769 82.2939C23.2659 82.2888 23.2565 82.2808 23.2497 82.2707C23.2454 82.2532 23.2454 82.235 23.2497 82.2175V81.4279C23.2454 81.4104 23.2454 81.3921 23.2497 81.3746C23.2565 81.3646 23.2659 81.3566 23.2769 81.3515C23.2879 81.3463 23.3001 81.3443 23.3121 81.3456H24.3351C24.3687 81.3456 24.3879 81.3746 24.3975 81.3746Z" fill="#EBC82A"/>
<path d="M25.4204 81.3746C25.4263 81.3919 25.4263 81.4107 25.4204 81.4279V82.2175C25.4263 82.2347 25.4263 82.2535 25.4204 82.2707C25.4204 82.2707 25.3916 82.2998 25.358 82.2998H24.335C24.323 82.3011 24.3109 82.299 24.2999 82.2939C24.2889 82.2888 24.2795 82.2808 24.2726 82.2707C24.2683 82.2532 24.2683 82.235 24.2726 82.2175V81.4279C24.2683 81.4104 24.2683 81.3921 24.2726 81.3746C24.2795 81.3646 24.2889 81.3566 24.2999 81.3515C24.3109 81.3463 24.323 81.3443 24.335 81.3456H25.358C25.3916 81.3456 25.4108 81.3746 25.4204 81.3746Z" fill="#EBC82A"/>
<path d="M26.4434 81.3746C26.4493 81.3919 26.4493 81.4107 26.4434 81.4279V82.2175C26.4493 82.2347 26.4493 82.2535 26.4434 82.2707C26.4434 82.2707 26.4146 82.2998 26.381 82.2998H25.358C25.346 82.3011 25.3338 82.299 25.3228 82.2939C25.3118 82.2888 25.3024 82.2808 25.2956 82.2707C25.2913 82.2532 25.2913 82.235 25.2956 82.2175V81.4279C25.2913 81.4104 25.2913 81.3921 25.2956 81.3746C25.3024 81.3646 25.3118 81.3566 25.3228 81.3515C25.3338 81.3463 25.346 81.3443 25.358 81.3456H26.381C26.4146 81.3456 26.4146 81.3746 26.4434 81.3746Z" fill="#EBC82A"/>
<path d="M27.4712 81.3746C27.4754 81.3921 27.4754 81.4104 27.4712 81.4279V82.2175C27.4754 82.235 27.4754 82.2532 27.4712 82.2707C27.4632 82.2808 27.4529 82.2888 27.4412 82.2939C27.4294 82.2989 27.4166 82.301 27.4039 82.2998H26.3809C26.3689 82.3011 26.3568 82.299 26.3458 82.2939C26.3348 82.2888 26.3254 82.2808 26.3185 82.2707C26.3142 82.2532 26.3142 82.235 26.3185 82.2175V81.4279C26.3142 81.4104 26.3142 81.3921 26.3185 81.3746C26.3254 81.3646 26.3348 81.3566 26.3458 81.3515C26.3568 81.3463 26.3689 81.3443 26.3809 81.3456H27.4039C27.4166 81.3444 27.4294 81.3465 27.4412 81.3515C27.4529 81.3566 27.4632 81.3645 27.4712 81.3746Z" fill="#EBC82A"/>
<path d="M28.4893 81.3746C28.4952 81.3919 28.4952 81.4107 28.4893 81.4279V82.2175C28.4952 82.2347 28.4952 82.2535 28.4893 82.2707C28.4893 82.2707 28.4605 82.2998 28.4269 82.2998H27.4039C27.3919 82.3011 27.3797 82.299 27.3687 82.2939C27.3577 82.2888 27.3483 82.2808 27.3415 82.2707C27.3372 82.2532 27.3372 82.235 27.3415 82.2175V81.4279C27.3372 81.4104 27.3372 81.3921 27.3415 81.3746C27.3483 81.3646 27.3577 81.3566 27.3687 81.3515C27.3797 81.3463 27.3919 81.3443 27.4039 81.3456H28.4269C28.4605 81.3456 28.4797 81.3746 28.4893 81.3746Z" fill="#EBC82A"/>
<path d="M29.517 81.3746C29.5213 81.3921 29.5213 81.4104 29.517 81.4279V82.2174C29.5213 82.2349 29.5213 82.2532 29.517 82.2707C29.5091 82.2808 29.4988 82.2887 29.4871 82.2938C29.4753 82.2989 29.4625 82.3009 29.4498 82.2998H28.4268C28.4149 82.3005 28.4029 82.2983 28.392 82.2932C28.3811 82.2881 28.3716 82.2804 28.3644 82.2707C28.3601 82.2532 28.3601 82.2349 28.3644 82.2174V81.4279C28.3601 81.4104 28.3601 81.3921 28.3644 81.3746C28.3716 81.3649 28.3811 81.3571 28.392 81.3521C28.4029 81.347 28.4149 81.3447 28.4268 81.3455H29.4498C29.4625 81.3444 29.4753 81.3464 29.4871 81.3515C29.4988 81.3566 29.5091 81.3645 29.517 81.3746Z" fill="#EBC82A"/>
<path d="M30.54 81.3746C30.5443 81.3921 30.5443 81.4104 30.54 81.4279V82.2174C30.5443 82.2349 30.5443 82.2532 30.54 82.2707C30.5321 82.2808 30.5218 82.2887 30.51 82.2938C30.4983 82.2989 30.4855 82.3009 30.4728 82.2998H29.4498C29.4378 82.3005 29.4258 82.2983 29.4149 82.2932C29.404 82.2881 29.3945 82.2804 29.3874 82.2707C29.3831 82.2532 29.3831 82.2349 29.3874 82.2174V81.4279C29.3831 81.4104 29.3831 81.3921 29.3874 81.3746C29.3945 81.3649 29.404 81.3571 29.4149 81.3521C29.4258 81.347 29.4378 81.3447 29.4498 81.3455H30.4728C30.4855 81.3444 30.4983 81.3464 30.51 81.3515C30.5218 81.3566 30.5321 81.3645 30.54 81.3746Z" fill="#EBC82A"/>
<path d="M31.5631 81.3747C31.5673 81.3922 31.5673 81.4105 31.5631 81.428V82.2175C31.5673 82.235 31.5673 82.2533 31.5631 82.2708C31.5559 82.2805 31.5464 82.2882 31.5355 82.2933C31.5246 82.2984 31.5126 82.3006 31.5006 82.2998H30.4729C30.4609 82.3006 30.4489 82.2984 30.438 82.2933C30.4271 82.2882 30.4176 82.2805 30.4104 82.2708C30.4062 82.2533 30.4062 82.235 30.4104 82.2175V81.428C30.4062 81.4105 30.4062 81.3922 30.4104 81.3747C30.4176 81.365 30.4271 81.3572 30.438 81.3521C30.4489 81.3471 30.4609 81.3448 30.4729 81.3456H31.5006C31.5126 81.3448 31.5246 81.3471 31.5355 81.3521C31.5464 81.3572 31.5559 81.365 31.5631 81.3747Z" fill="#EBC82A"/>
<path d="M32.586 81.3746C32.5903 81.3921 32.5903 81.4104 32.586 81.4279V82.2175C32.5903 82.235 32.5903 82.2532 32.586 82.2707C32.5792 82.2808 32.5698 82.2888 32.5588 82.2939C32.5478 82.299 32.5356 82.3011 32.5236 82.2998H31.5006C31.4879 82.301 31.4751 82.2989 31.4634 82.2939C31.4516 82.2888 31.4413 82.2808 31.4334 82.2707C31.4291 82.2532 31.4291 82.235 31.4334 82.2175V81.4279C31.4291 81.4104 31.4291 81.3921 31.4334 81.3746C31.4413 81.3645 31.4516 81.3566 31.4634 81.3515C31.4751 81.3465 31.4879 81.3444 31.5006 81.3456H32.5236C32.5356 81.3443 32.5478 81.3463 32.5588 81.3515C32.5698 81.3566 32.5792 81.3646 32.586 81.3746Z" fill="#EBC82A"/>
<path d="M33.6186 81.3747C33.6228 81.3922 33.6228 81.4105 33.6186 81.4279V82.2175C33.6228 82.235 33.6228 82.2533 33.6186 82.2708C33.6117 82.2808 33.6023 82.2888 33.5913 82.2939C33.5803 82.2991 33.5682 82.3011 33.5561 82.2998H32.5236C32.5108 82.301 32.498 82.299 32.4863 82.2939C32.4746 82.2888 32.4643 82.2809 32.4563 82.2708C32.4521 82.2533 32.4521 82.235 32.4563 82.2175V81.4279C32.4521 81.4105 32.4521 81.3922 32.4563 81.3747C32.4643 81.3646 32.4746 81.3566 32.4863 81.3515C32.498 81.3465 32.5108 81.3444 32.5236 81.3456H33.5465C33.56 81.3424 33.5742 81.3434 33.5871 81.3486C33.6 81.3538 33.611 81.3629 33.6186 81.3747Z" fill="#EBC82A"/>
<path d="M34.632 81.3748C34.6362 81.3923 34.6362 81.4105 34.632 81.428V82.2176C34.6362 82.2351 34.6362 82.2534 34.632 82.2709C34.6251 82.2809 34.6157 82.2889 34.6047 82.294C34.5937 82.2992 34.5816 82.3012 34.5695 82.2999H33.5466C33.5129 82.2999 33.4937 82.2999 33.4841 82.2709C33.4783 82.2536 33.4783 82.2348 33.4841 82.2176V81.428C33.4783 81.4108 33.4783 81.392 33.4841 81.3748C33.4841 81.3748 33.5129 81.3457 33.5466 81.3457H34.5791C34.5896 81.3461 34.5998 81.3489 34.609 81.3539C34.6181 81.359 34.626 81.3661 34.632 81.3748Z" fill="#EBC82A"/>
<path d="M35.6548 81.3748C35.6591 81.3923 35.6591 81.4105 35.6548 81.428V82.2176C35.6591 82.2351 35.6591 82.2534 35.6548 82.2709C35.648 82.2809 35.6386 82.2889 35.6276 82.294C35.6166 82.2992 35.6044 82.3012 35.5924 82.2999H34.579C34.5454 82.2999 34.5262 82.2999 34.5166 82.2709C34.5107 82.2536 34.5107 82.2348 34.5166 82.2176V81.428C34.5107 81.4108 34.5107 81.392 34.5166 81.3748C34.5166 81.3748 34.5454 81.3457 34.579 81.3457H35.602C35.6124 81.3461 35.6226 81.3489 35.6318 81.3539C35.641 81.359 35.6489 81.3661 35.6548 81.3748Z" fill="#EBC82A"/>
<path d="M36.6779 81.3746C36.6821 81.3921 36.6821 81.4104 36.6779 81.4279V82.2175C36.6821 82.235 36.6821 82.2532 36.6779 82.2707C36.671 82.2808 36.6616 82.2888 36.6506 82.2939C36.6396 82.299 36.6275 82.3011 36.6154 82.2998H35.5925C35.5588 82.2998 35.5396 82.2998 35.53 82.2707C35.5242 82.2535 35.5242 82.2347 35.53 82.2175V81.4279C35.5242 81.4107 35.5242 81.3919 35.53 81.3746C35.53 81.3746 35.5588 81.3456 35.5925 81.3456H36.6154C36.6275 81.3443 36.6396 81.3463 36.6506 81.3515C36.6616 81.3566 36.671 81.3646 36.6779 81.3746Z" fill="#EBC82A"/>
<path d="M37.7008 81.3746C37.7051 81.3921 37.7051 81.4104 37.7008 81.4279V82.2175C37.7051 82.235 37.7051 82.2532 37.7008 82.2707C37.694 82.2808 37.6845 82.2888 37.6736 82.2939C37.6626 82.299 37.6504 82.3011 37.6384 82.2998H36.6154C36.5818 82.2998 36.5626 82.2998 36.553 82.2707C36.5471 82.2535 36.5471 82.2347 36.553 82.2175V81.4279C36.5471 81.4107 36.5471 81.3919 36.553 81.3746C36.553 81.3746 36.5818 81.3456 36.6154 81.3456H37.6384C37.6504 81.3443 37.6626 81.3463 37.6736 81.3515C37.6845 81.3566 37.694 81.3646 37.7008 81.3746Z" fill="#EBC82A"/>
<path d="M38.7238 81.3746C38.728 81.3921 38.728 81.4104 38.7238 81.4279V82.2175C38.728 82.235 38.728 82.2532 38.7238 82.2707C38.7169 82.2808 38.7075 82.2888 38.6965 82.2939C38.6855 82.299 38.6734 82.3011 38.6613 82.2998H37.6384C37.6048 82.2998 37.5855 82.2998 37.5759 82.2707C37.572 82.2532 37.572 82.235 37.5759 82.2175V81.4279C37.572 81.4104 37.572 81.3922 37.5759 81.3746C37.5759 81.3746 37.6048 81.3456 37.6384 81.3456H38.6613C38.6734 81.3443 38.6855 81.3463 38.6965 81.3515C38.7075 81.3566 38.7169 81.3646 38.7238 81.3746Z" fill="#EBC82A"/>
<path d="M39.7467 81.3746C39.751 81.3921 39.751 81.4104 39.7467 81.4279V82.2175C39.751 82.235 39.751 82.2532 39.7467 82.2707C39.7399 82.2808 39.7305 82.2888 39.7195 82.2939C39.7085 82.299 39.6963 82.3011 39.6843 82.2998H38.6613C38.6277 82.2998 38.6085 82.2998 38.5989 82.2707C38.595 82.2532 38.595 82.235 38.5989 82.2175V81.4279C38.595 81.4104 38.595 81.3922 38.5989 81.3746C38.5989 81.3746 38.6277 81.3456 38.6613 81.3456H39.6843C39.6963 81.3443 39.7085 81.3463 39.7195 81.3515C39.7305 81.3566 39.7399 81.3646 39.7467 81.3746Z" fill="#EBC82A"/>
<path d="M40.7697 81.3748C40.774 81.3923 40.774 81.4105 40.7697 81.428V82.2176C40.774 82.2351 40.774 82.2534 40.7697 82.2709C40.7697 82.2709 40.7409 82.2999 40.7073 82.2999H39.6843C39.6507 82.2999 39.6315 82.2999 39.6219 82.2709C39.6176 82.2534 39.6176 82.2351 39.6219 82.2176V81.428C39.6176 81.4105 39.6176 81.3923 39.6219 81.3748C39.6219 81.3748 39.6507 81.3457 39.6843 81.3457H40.7073C40.7409 81.3457 40.7601 81.3748 40.7697 81.3748Z" fill="#EBC82A"/>
<path d="M41.783 81.3748C41.7873 81.3923 41.7873 81.4105 41.783 81.428V82.2176C41.7873 82.2351 41.7873 82.2534 41.783 82.2709C41.783 82.2709 41.7542 82.2999 41.7206 82.2999H40.7072C40.6736 82.2999 40.6544 82.2999 40.6448 82.2709C40.6405 82.2534 40.6405 82.2351 40.6448 82.2176V81.428C40.6405 81.4105 40.6405 81.3923 40.6448 81.3748C40.6448 81.3748 40.6736 81.3457 40.7072 81.3457H41.7302C41.783 81.3457 41.783 81.3748 41.783 81.3748Z" fill="#EBC82A"/>
<path d="M42.8156 81.3748C42.8199 81.3923 42.8199 81.4105 42.8156 81.428V82.2176C42.8199 82.2351 42.8199 82.2534 42.8156 82.2709C42.8156 82.2709 42.7868 82.2999 42.7532 82.2999H41.7302C41.6966 82.2999 41.6774 82.2999 41.6678 82.2709C41.6635 82.2534 41.6635 82.2351 41.6678 82.2176V81.428C41.6635 81.4105 41.6635 81.3923 41.6678 81.3748C41.6678 81.3748 41.6966 81.3457 41.7302 81.3457H42.7435C42.7868 81.3457 42.806 81.3748 42.8156 81.3748Z" fill="#EBC82A"/>
<path d="M44.7271 81.0502C44.8233 81.1554 44.9422 81.2368 45.0747 81.288C45.2071 81.3393 45.3495 81.359 45.4907 81.3457C45.5244 81.3457 45.5436 81.3457 45.5532 81.3748C45.559 81.392 45.559 81.4108 45.5532 81.428V82.2176C45.559 82.2348 45.559 82.2536 45.5532 82.2709C45.5532 82.2709 45.5244 82.2999 45.4907 82.2999C45.2957 82.2942 45.1034 82.2514 44.924 82.174C44.7173 82.0858 44.5309 81.9556 44.3765 81.7913C44.2361 81.9531 44.0612 82.0808 43.8649 82.1646C43.6686 82.2485 43.456 82.2865 43.2431 82.2757H42.7436C42.71 82.2757 42.6908 82.2757 42.6812 82.2466C42.6769 82.2291 42.6769 82.2109 42.6812 82.1934V81.4038C42.6769 81.3863 42.6769 81.368 42.6812 81.3505C42.6812 81.3505 42.71 81.3215 42.7436 81.3215H42.9021C43.0046 81.322 43.106 81.2997 43.199 81.2562C43.2919 81.2126 43.3743 81.1489 43.44 81.0696C43.5962 80.8873 43.677 80.6515 43.6657 80.4109V78.3377H44.7655V80.5852C44.7718 80.7412 44.7589 80.8974 44.7271 81.0502ZM43.6561 77.6887V76.686H44.7895V77.6887H43.6561Z" fill="#EBC82A"/>
<path d="M47.4694 81.0501C47.5649 81.1562 47.6837 81.2382 47.8164 81.2895C47.949 81.3409 48.0917 81.3601 48.233 81.3456C48.2451 81.3443 48.2572 81.3464 48.2682 81.3515C48.2792 81.3566 48.2886 81.3646 48.2955 81.3747C48.2997 81.3922 48.2997 81.4105 48.2955 81.4279V82.2175C48.2997 82.235 48.2997 82.2533 48.2955 82.2708C48.2886 82.2808 48.2792 82.2888 48.2682 82.2939C48.2572 82.2991 48.2451 82.3011 48.233 82.2998C48.0379 82.2945 47.8456 82.2518 47.6663 82.1739C47.4582 82.0858 47.2702 81.9556 47.114 81.7912C46.9736 81.953 46.7987 82.0807 46.6024 82.1645C46.4061 82.2484 46.1935 82.2864 45.9806 82.2756H45.5003C45.4883 82.2769 45.4761 82.2748 45.4652 82.2697C45.4542 82.2646 45.4447 82.2566 45.4379 82.2465C45.4336 82.229 45.4336 82.2108 45.4379 82.1933V81.4037C45.4336 81.3862 45.4336 81.3679 45.4379 81.3504C45.4447 81.3404 45.4542 81.3324 45.4652 81.3273C45.4761 81.3221 45.4883 81.3201 45.5003 81.3214H45.6588C45.7614 81.3226 45.863 81.3006 45.9561 81.257C46.0492 81.2134 46.1314 81.1494 46.1967 81.0695C46.3551 80.8885 46.4363 80.6518 46.4224 80.4108V78.3376H47.5271V80.5851C47.5244 80.7418 47.505 80.8977 47.4694 81.0501ZM46.3504 84V82.9973H47.4838V84H46.3504Z" fill="#EBC82A"/>
<path d="M51.7102 76.2162C51.7337 76.3163 51.7465 76.4185 51.7486 76.5213C51.7556 76.609 51.7448 76.6973 51.7167 76.7806C51.6886 76.8639 51.6439 76.9405 51.5853 77.0057C51.5211 77.0655 51.4452 77.1111 51.3625 77.1395C51.2798 77.1678 51.1921 77.1784 51.105 77.1704C51.0375 77.1715 50.9708 77.1546 50.9118 77.1215C50.8528 77.0883 50.8035 77.04 50.7689 76.9815C50.7273 77.086 50.6574 77.1767 50.5671 77.2431C50.4721 77.3119 50.3575 77.3476 50.2406 77.3448C50.1085 77.3493 49.9791 77.3064 49.8756 77.2237C49.7615 77.1274 49.6892 76.9902 49.6739 76.841L49.5874 76.3954L49.9716 76.3131L50.0533 76.7442C50.0821 76.8895 50.1541 76.967 50.2694 76.967C50.3846 76.967 50.5095 76.8556 50.5095 76.6424C50.503 76.5021 50.4837 76.3626 50.4519 76.2259L50.8457 76.1726L50.9225 76.5988C50.9514 76.7345 51.0234 76.7974 51.1387 76.7974C51.1691 76.8016 51.2 76.7985 51.229 76.7885C51.258 76.7784 51.2843 76.7617 51.3058 76.7395C51.3273 76.7174 51.3433 76.6906 51.3526 76.6611C51.362 76.6316 51.3644 76.6003 51.3596 76.5698C51.3552 76.39 51.3177 76.2126 51.2491 76.0467L51.6429 75.9595C51.667 75.9885 51.6862 76.0806 51.7102 76.2162Z" fill="#EBC82A"/>
<path d="M51.7965 78.357C52.1032 78.4904 52.3746 78.6945 52.589 78.9528C52.7747 79.1793 52.8781 79.463 52.8819 79.7569C52.8774 80.0349 52.8013 80.307 52.661 80.5464C52.5083 80.8205 52.3063 81.0636 52.0655 81.2633C52.4075 81.3121 52.7528 81.3332 53.0981 81.3262C53.1653 81.3262 53.1989 81.3553 53.1989 81.4134V82.1933C53.1989 82.2514 53.1653 82.2804 53.0981 82.2804C52.3449 82.2933 51.5939 82.1937 50.8696 81.985C50.008 82.1937 49.1238 82.293 48.2378 82.2804C48.2261 82.282 48.2141 82.2809 48.2029 82.2771C48.1917 82.2733 48.1815 82.2669 48.1731 82.2584C48.1648 82.25 48.1585 82.2397 48.1547 82.2284C48.1509 82.2171 48.1497 82.2051 48.1513 82.1933V81.4134C48.1497 81.4016 48.1509 81.3896 48.1547 81.3783C48.1585 81.3669 48.1648 81.3567 48.1731 81.3482C48.1815 81.3398 48.1917 81.3334 48.2029 81.3296C48.2141 81.3258 48.2261 81.3246 48.2378 81.3262C48.6889 81.3358 49.1402 81.3099 49.5873 81.2487C49.1869 80.755 48.8255 80.2303 48.5067 79.6794L48.7517 78.6476C49.0971 78.4949 49.4516 78.3638 49.813 78.2553C50.1161 78.1685 50.4297 78.1245 50.7448 78.1245C51.108 78.1235 51.467 78.2029 51.7965 78.357ZM49.5057 79.505C49.6667 79.8166 49.8547 80.1132 50.0676 80.3914C50.2737 80.6724 50.5052 80.9334 50.7592 81.1712C51.0287 81.0422 51.2727 80.865 51.4796 80.6481C51.6647 80.4728 51.7735 80.2308 51.7821 79.9748C51.7828 79.8595 51.7534 79.746 51.697 79.6457C51.6405 79.5454 51.5589 79.4618 51.4604 79.4033C51.2231 79.2589 50.9497 79.1866 50.6727 79.195C50.2666 79.2155 49.8691 79.3211 49.5057 79.505Z" fill="#EBC82A"/>
<path d="M53.1173 82.2998C53.1053 82.3006 53.0933 82.2983 53.0824 82.2933C53.0715 82.2882 53.062 82.2804 53.0548 82.2707C53.0506 82.2532 53.0506 82.2349 53.0548 82.2174V81.4279C53.0506 81.4104 53.0506 81.3921 53.0548 81.3746C53.062 81.3649 53.0715 81.3572 53.0824 81.3521C53.0933 81.347 53.1053 81.3448 53.1173 81.3456H53.9049V76.2161H54.9999V82.2998H53.1173Z" fill="#EBC82A"/>
</g>
<defs>
<clipPath id="clip0_11809_483">
<rect width="55" height="84" fill="white"/>
</clipPath>
</defs>
</svg>
