<svg width="35" height="35" viewBox="0 0 35 35" fill="none" xmlns="http://www.w3.org/2000/svg">
<rect width="35" height="35" rx="12" fill="#555555"/>
<path d="M26.91 16.1198C26.91 21.0098 23.36 25.5898 18.51 26.9298C18.18 27.0198 17.82 27.0198 17.49 26.9298C12.64 25.5898 9.08997 21.0098 9.08997 16.1198V11.7298C9.08997 10.9098 9.70998 9.97979 10.48 9.66979L16.05 7.38982C17.3 6.87982 18.71 6.87982 19.96 7.38982L25.53 9.66979C26.29 9.97979 26.92 10.9098 26.92 11.7298L26.91 16.1198Z" stroke="#747474" stroke-width="1.5" stroke-linecap="round" stroke-linejoin="round"/>
<path d="M18 17.5C19.1046 17.5 20 16.6046 20 15.5C20 14.3954 19.1046 13.5 18 13.5C16.8954 13.5 16 14.3954 16 15.5C16 16.6046 16.8954 17.5 18 17.5Z" stroke="#747474" stroke-width="1.5" stroke-miterlimit="10" stroke-linecap="round" stroke-linejoin="round"/>
<path d="M18 17.5V20.5" stroke="#747474" stroke-width="1.5" stroke-miterlimit="10" stroke-linecap="round" stroke-linejoin="round"/>
</svg>
