<svg width="35" height="35" viewBox="0 0 35 35" fill="none" xmlns="http://www.w3.org/2000/svg">
<rect width="35" height="35" rx="12" fill="#555555"/>
<g clip-path="url(#clip0_0_1)">
<path d="M8.31303 15.3277C8.41816 15.6881 8.56406 16.0357 8.74857 16.3618L8.22292 17.0248C8.05128 17.2415 8.07059 17.5504 8.26368 17.7457L9.16909 18.6511C9.36433 18.8463 9.67328 18.8634 9.88998 18.6918L10.5487 18.1704C10.8871 18.3653 11.248 18.5181 11.6236 18.6253L11.7222 19.4728C11.7544 19.7474 11.9861 19.9534 12.2608 19.9534H13.5416C13.8163 19.9534 14.048 19.7474 14.0802 19.4728L14.1746 18.6553C14.5779 18.5502 14.9641 18.3936 15.3267 18.1898L15.9639 18.6939C16.1806 18.8656 16.4896 18.8463 16.6848 18.6532L17.5902 17.7478C17.7855 17.5525 17.8026 17.2436 17.631 17.0269L17.1354 16.3983C17.3413 16.0421 17.5023 15.6623 17.6095 15.2654L18.3733 15.1775C18.648 15.1453 18.8539 14.9136 18.8539 14.6389V13.3581C18.8539 13.0834 18.648 12.8517 18.3733 12.8195L17.6203 12.7316C17.5173 12.3389 17.3628 11.9635 17.1654 11.6116L17.6289 11.0259C17.8005 10.8092 17.7812 10.5002 17.5881 10.305L16.6848 9.40174C16.4896 9.2065 16.1806 9.18934 15.9639 9.36098L15.3954 9.81153C15.0264 9.59484 14.6316 9.42963 14.2175 9.31807L14.1317 8.58216C14.0995 8.30753 13.8678 8.10156 13.5932 8.10156H12.3123C12.0377 8.10156 11.8059 8.30753 11.7738 8.58216L11.6879 9.31807C11.2631 9.43178 10.8576 9.60342 10.48 9.8287L9.89 9.36098C9.67331 9.18934 9.36435 9.20865 9.16911 9.40174L8.26371 10.3071C8.06846 10.5024 8.0513 10.8113 8.22294 11.028L8.71641 11.6524C8.51902 12.0085 8.36884 12.3883 8.27014 12.7831L7.48059 12.8732C7.20597 12.9054 7 13.1371 7 13.4117V14.6926C7 14.9672 7.20597 15.1989 7.48059 15.2311L8.31303 15.3277ZM12.9538 11.8627C14.1209 11.8627 15.0714 12.8131 15.0714 13.9803C15.0714 15.1474 14.1209 16.0979 12.9538 16.0979C11.7866 16.0979 10.8362 15.1474 10.8362 13.9803C10.8362 12.8131 11.7866 11.8627 12.9538 11.8627Z" fill="#747474"/>
<path d="M25.6165 15.6431L24.9407 15.0723C24.7326 14.8964 24.4258 14.905 24.2284 15.0917L23.8551 15.4414C23.5397 15.289 23.205 15.1818 22.8595 15.1195L22.7545 14.6046C22.7008 14.3386 22.4541 14.1541 22.1837 14.1755L21.3019 14.2506C21.0316 14.2742 20.8192 14.4952 20.8106 14.7677L20.7934 15.2912C20.4544 15.4135 20.1348 15.5808 19.843 15.7911L19.3967 15.495C19.1692 15.3448 18.8668 15.3877 18.6908 15.5958L18.1201 16.276C17.9442 16.4841 17.9528 16.7909 18.1394 16.9883L18.5299 17.4045C18.3948 17.7088 18.2982 18.0288 18.2424 18.3571L17.6846 18.4708C17.4185 18.5245 17.234 18.7712 17.2555 19.0415L17.3306 19.9233C17.3542 20.1937 17.5752 20.4061 17.8476 20.4147L18.4505 20.434C18.56 20.7215 18.7037 20.994 18.8775 21.2492L18.5407 21.7577C18.3905 21.9852 18.4334 22.2877 18.6415 22.4636L19.3173 23.0343C19.5254 23.2102 19.8322 23.2017 20.0296 23.015L20.4716 22.6009C20.7613 22.7361 21.0659 22.8369 21.3791 22.897L21.5015 23.502C21.5551 23.7681 21.8018 23.9526 22.0722 23.9311L22.954 23.856C23.2243 23.8324 23.4367 23.6115 23.4453 23.339L23.4646 22.7468C23.7864 22.6331 24.0911 22.4786 24.3721 22.2877L24.8592 22.6095C25.0866 22.7597 25.3891 22.7168 25.5651 22.5087L26.1358 21.8328C26.3117 21.6247 26.3031 21.3179 26.1165 21.1205L25.7238 20.7043C25.8676 20.3996 25.9727 20.0778 26.0328 19.7474L26.5691 19.638C26.8352 19.5843 27.0197 19.3376 26.9982 19.0672L26.9231 18.1854C26.8995 17.9151 26.6786 17.7027 26.4061 17.6941L25.8676 17.677C25.7563 17.3644 25.6056 17.0674 25.4191 16.793L25.7131 16.351C25.8676 16.1236 25.8246 15.819 25.6165 15.6431ZM22.2932 20.7408C21.3405 20.8223 20.4995 20.1121 20.4201 19.1595C20.3386 18.2069 21.0488 17.3659 22.0013 17.2865C22.9539 17.205 23.795 17.9151 23.8744 18.8677C23.9559 19.8204 23.2457 20.6614 22.2932 20.7408ZM11.3982 23.1137C11.1279 23.1416 10.9198 23.369 10.9176 23.6415L10.9112 24.1843C10.9069 24.4568 11.1086 24.6885 11.3789 24.7229L11.778 24.7743C11.8445 25.0168 11.9389 25.2485 12.0612 25.4674L11.8037 25.7849C11.6321 25.9973 11.645 26.302 11.8359 26.4972L12.2157 26.8855C12.4066 27.0808 12.7113 27.1022 12.928 26.9349L13.2476 26.6882C13.4729 26.8212 13.7111 26.9263 13.9599 26.9993L14.0029 27.4112C14.0308 27.6815 14.2582 27.8896 14.5307 27.8918L15.0735 27.8982C15.3459 27.9025 15.5777 27.7008 15.612 27.4305L15.6614 27.04C15.9317 26.9735 16.1892 26.8727 16.4337 26.7397L16.7341 26.9821C16.9465 27.1537 17.2512 27.1409 17.4464 26.9499L17.8348 26.5702C18.03 26.3792 18.0515 26.0745 17.8842 25.8578L17.6545 25.5596C17.7961 25.3236 17.9056 25.0726 17.9807 24.8087L18.3368 24.7722C18.6072 24.7443 18.8153 24.5169 18.8174 24.2444L18.8238 23.7016C18.8282 23.4291 18.6265 23.1974 18.3561 23.163L18.0085 23.118C17.942 22.8562 17.8434 22.6031 17.7146 22.3671L17.9313 22.101C18.103 21.8886 18.0901 21.5839 17.8991 21.3887L17.5194 21.0004C17.4275 20.906 17.3041 20.8488 17.1727 20.8397C17.0413 20.8306 16.9111 20.8702 16.8071 20.951L16.5475 21.1506C16.3036 21.0028 16.0409 20.8888 15.7665 20.8116L15.7322 20.4747C15.7043 20.2044 15.4769 19.9963 15.2044 19.9941L14.6616 19.9877C14.3891 19.9834 14.1574 20.1851 14.123 20.4554L14.0801 20.7901C13.7968 20.8632 13.5247 20.9744 13.2713 21.1205L13.0031 20.9017C12.7907 20.73 12.486 20.7429 12.2907 20.9339L11.9003 21.3158C11.8059 21.4077 11.7487 21.5311 11.7396 21.6625C11.7305 21.7939 11.7701 21.924 11.8509 22.0281L12.0805 22.3242C11.9475 22.5602 11.8423 22.8112 11.7737 23.0751L11.3982 23.1137ZM14.9018 22.5001C15.6807 22.5087 16.305 23.1502 16.2964 23.929C16.2878 24.7078 15.6463 25.3322 14.8675 25.3236C14.0887 25.315 13.4644 24.6735 13.4729 23.8947C13.4815 23.1159 14.123 22.4915 14.9018 22.5001Z" fill="#747474"/>
</g>
<defs>
<clipPath id="clip0_0_1">
<rect width="20" height="20" fill="white" transform="translate(7 8)"/>
</clipPath>
</defs>
</svg>
